HIERARCHY
ROOT SimulationBone
{
	OFFSET 0.000000 0.000000 0.000000
	CHANNELS 6 Xposition Yposition Zposition Zrotation Yrotation Xrotation 
	JOINT Hips
	{
		OFFSET 0.000000 0.000000 0.000000
		CHANNELS 6 Xposition Yposition Zposition Zrotation Yrotation Xrotation 
		JOINT LeftUpLeg
		{
			OFFSET 0.103461 1.857818 10.548512
			CHANNELS 3 Zrotation Yrotation Xrotation
			JOINT LeftLeg
			{
				OFFSET 43.500000 -0.000019 0.000004
				CHANNELS 3 Zrotation Yrotation Xrotation
				JOINT LeftFoot
				{
					OFFSET 42.372200 0.000011 0.000000
					CHANNELS 3 Zrotation Yrotation Xrotation
					JOINT LeftToe
					{
						OFFSET 17.300009 0.000002 0.000004
						CHANNELS 3 Zrotation Yrotation Xrotation
						End Site
						{
							OFFSET 0.000000 0.000000 0.000000
						}
					}
				}
			}
		}
		JOINT RightUpLeg
		{
			OFFSET 0.103461 1.857838 -10.548504
			CHANNELS 3 Zrotation Yrotation Xrotation
			JOINT RightLeg
			{
				OFFSET 43.500042 -0.000038 0.000017
				CHANNELS 3 Zrotation Yrotation Xrotation
				JOINT RightFoot
				{
					OFFSET 42.372253 -0.000008 0.000015
					CHANNELS 3 Zrotation Yrotation Xrotation
					JOINT RightToe
					{
						OFFSET 17.299995 -0.000004 0.000004
						CHANNELS 3 Zrotation Yrotation Xrotation
						End Site
						{
							OFFSET 0.000000 0.000000 0.000000
						}
					}
				}
			}
		}
		JOINT Spine
		{
			OFFSET 6.901970 -2.603733 -0.000002
			CHANNELS 3 Zrotation Yrotation Xrotation
			JOINT Spine1
			{
				OFFSET 12.588097 0.000016 0.000005
				CHANNELS 3 Zrotation Yrotation Xrotation
				JOINT Spine2
				{
					OFFSET 12.343206 -0.000008 -0.000008
					CHANNELS 3 Zrotation Yrotation Xrotation
					JOINT Neck
					{
						OFFSET 25.832890 -0.000023 0.000008
						CHANNELS 3 Zrotation Yrotation Xrotation
						JOINT Head
						{
							OFFSET 11.766625 0.000019 -0.000006
							CHANNELS 3 Zrotation Yrotation Xrotation
							End Site
							{
								OFFSET 0.000000 0.000000 0.000000
							}
						}
					}
					JOINT LeftShoulder
					{
						OFFSET 19.745903 -1.480385 6.000111
						CHANNELS 3 Zrotation Yrotation Xrotation
						JOINT LeftArm
						{
							OFFSET 11.284122 -0.000021 -0.000025
							CHANNELS 3 Zrotation Yrotation Xrotation
							JOINT LeftForeArm
							{
								OFFSET 33.000057 -0.000001 0.000032
								CHANNELS 3 Zrotation Yrotation Xrotation
								JOINT LeftHand
								{
									OFFSET 25.200003 0.000023 0.000006
									CHANNELS 3 Zrotation Yrotation Xrotation
									End Site
									{
										OFFSET 0.000000 0.000000 0.000000
									}
								}
							}
						}
					}
					JOINT RightShoulder
					{
						OFFSET 19.746098 -1.480366 -6.000072
						CHANNELS 3 Zrotation Yrotation Xrotation
						JOINT RightArm
						{
							OFFSET 11.284136 -0.000004 -0.000006
							CHANNELS 3 Zrotation Yrotation Xrotation
							JOINT RightForeArm
							{
								OFFSET 33.000092 0.000029 0.000002
								CHANNELS 3 Zrotation Yrotation Xrotation
								JOINT RightHand
								{
									OFFSET 25.199776 0.000140 0.000420
									CHANNELS 3 Zrotation Yrotation Xrotation
									End Site
									{
										OFFSET 0.000000 0.000000 0.000000
									}
								}
							}
						}
					}
				}
			}
		}
	}
}
MOTION
Frames: 9
Frame Time: 0.033333
-74.355528 0.000000 407.039268 0.000000 166.905519 0.000000 -10.585580 86.934738 -0.739618 82.746328 -0.342650 179.140365 -178.036708 -0.130401 170.451100 -41.733074 1.090111 0.448944 78.877190 -1.439086 -4.338889 21.454551 0.003108 0.000017 141.887809 0.134294 -174.612243 -16.682110 1.605054 0.136319 82.124788 0.153952 1.496959 21.454551 -0.003095 -0.000001 12.391106 -0.061249 -2.987461 14.762684 0.259777 -5.958079 14.446456 0.223722 -5.959542 21.097708 5.098535 -1.492991 -26.307461 3.818813 -3.514047 153.716918 -76.324222 25.361085 0.190385 45.635195 15.064312 -65.428001 -20.365732 2.714598 -5.435153 -15.919694 29.367860 -118.947376 77.674721 63.630022 2.617245 -59.976888 29.245617 -96.812952 1.784362 -2.732798 -34.480424 35.742960 -42.830515 
-80.218304 0.000000 405.739344 0.000000 166.074930 0.000000 -7.786656 85.669647 -0.393738 84.733366 -0.616135 -178.098458 -169.593720 -0.413405 172.616543 -38.203509 0.828227 1.105065 74.918952 -2.623269 -6.237897 21.454545 0.003108 0.000017 143.529281 1.258102 -177.388919 -10.889079 1.707774 3.115854 80.114178 -1.187016 4.479936 21.454551 -0.003093 0.000000 11.931573 0.283087 -3.294081 13.823453 0.958283 -6.530628 13.507570 0.918782 -6.536269 22.063014 4.880355 -2.255538 -24.021874 2.672970 -3.791165 153.187059 -76.583503 25.885053 1.058835 46.288178 15.682866 -67.478123 -19.322993 2.725383 -9.609817 -18.800162 28.368132 -118.431095 77.435911 64.170044 8.032566 -59.758916 21.732453 -96.750627 1.998390 -2.744974 -36.283024 31.780426 -48.901590 
-86.044381 0.000000 404.543684 0.000000 165.314946 0.000000 -5.801475 84.398956 -0.107119 86.678362 0.748029 -176.930657 -163.922354 -1.653594 173.751529 -38.667344 1.606320 0.418063 71.038318 -3.750354 -10.258919 21.454562 0.003108 0.000017 142.435358 0.665300 -176.428909 -17.712682 1.844191 3.451117 65.821256 -1.924785 1.773181 21.454553 -0.003091 -0.000000 11.463882 0.814122 -3.099832 12.864377 1.968261 -6.090427 12.548044 1.931378 -6.102151 23.276614 4.365144 -3.062007 -21.225561 1.727811 -4.230773 154.343834 -76.832409 24.694831 1.309698 47.897152 15.853112 -68.707270 -18.625519 2.727268 -10.895726 -19.223832 27.484248 -118.345021 77.056610 64.284388 12.661245 -58.953296 14.858001 -97.168641 2.112169 -2.771509 -41.281885 28.689923 -56.791575 
-91.829404 0.000000 403.445456 0.000000 164.627172 0.000000 -4.393692 83.029610 0.198213 89.154184 2.878051 -176.840253 -162.036211 -3.378600 173.819299 -46.339934 2.951014 -0.487045 70.609423 -4.466660 -14.016967 21.454560 0.003108 0.000017 140.396383 -0.064499 -171.519519 -33.364303 2.253177 1.049821 65.792029 -2.779353 -5.023562 21.454551 -0.003089 0.000000 11.362643 1.511887 -2.682188 12.642644 3.308035 -5.184759 12.325408 3.276568 -5.204594 24.076509 3.222320 -3.666420 -18.626860 1.361791 -4.657203 157.376479 -76.705668 21.616949 -0.138844 50.345437 13.823519 -69.036438 -18.605794 2.739617 -9.479923 -17.263392 27.982424 -120.633981 76.821378 61.980893 12.963709 -58.096489 12.054048 -96.962670 2.467128 -2.787144 -47.149824 24.057420 -63.792867 
-97.569020 0.000000 402.437829 0.000000 164.012121 0.000000 -3.489695 81.885269 0.588268 91.340686 4.599046 -177.030255 -164.332780 -4.766297 174.153213 -58.833043 3.841753 -0.673187 72.757381 -2.799391 -10.015239 21.454565 0.003108 0.000017 140.985404 -0.511503 -167.155903 -45.339062 1.027968 -1.141366 75.657275 -0.938337 -5.767913 21.454553 -0.003091 -0.000000 11.492036 2.142061 -2.367252 12.892275 4.534670 -4.483874 12.574173 4.507405 -4.511162 24.549612 1.787594 -3.874689 -16.394223 1.647437 -4.868839 160.416692 -76.072728 18.552621 -3.096588 52.984031 10.751649 -67.589899 -19.668291 2.754416 -7.025953 -15.882942 29.009794 -125.465411 77.183863 57.055275 8.411704 -58.132942 13.208607 -94.280004 3.437691 -2.735641 -49.351047 18.061646 -66.250233 
-103.258873 0.000000 401.513971 0.000000 163.469255 0.000000 -3.333485 81.663254 0.997989 92.573205 6.000470 -177.031736 -170.091135 -5.765108 175.197781 -71.027581 4.177118 -1.533851 76.438143 -1.540519 -8.865030 21.454550 0.003108 0.000017 143.776466 -0.911301 -165.503420 -50.549308 1.204769 -2.092557 81.843363 0.091832 -5.556478 21.454550 -0.003097 -0.000000 11.573841 2.594921 -2.179903 13.053106 5.419227 -4.056747 12.734361 5.394510 -4.089421 25.633960 0.884098 -3.794904 -14.294486 2.200975 -4.886501 161.342592 -75.603309 17.630957 -6.562256 55.137054 9.418212 -64.038850 -21.372036 2.729123 -3.957682 -17.177801 27.905585 -131.300305 78.369782 51.061862 0.966895 -59.109072 13.348223 -88.203403 7.215497 -2.730334 -45.398256 14.919684 -63.230080 
-108.894611 0.000000 400.667051 0.000000 162.997047 0.000000 -3.549591 82.382263 1.400968 93.074514 6.964820 -177.169859 -177.768049 -6.401597 175.881292 -79.808288 4.441293 -1.999063 78.217086 -0.698389 -7.323722 21.454553 0.003108 0.000018 147.600333 -1.707792 -165.731576 -51.728636 1.857021 -2.358449 85.546528 0.453561 -5.486776 21.454553 -0.003089 0.000001 11.504431 2.795562 -1.960515 12.921128 5.792554 -3.600171 12.601957 5.770585 -3.635153 27.533490 0.756837 -3.722849 -12.339826 2.586741 -4.900755 160.543501 -75.726471 18.439996 -9.300780 56.539698 10.910511 -59.530044 -22.376297 2.620855 0.008919 -18.720521 24.473027 -137.279234 79.962691 44.914023 -6.774170 -60.066282 9.907539 -79.869398 12.990611 -2.770093 -36.558007 18.050754 -53.475173 
-114.471877 0.000000 399.890237 0.000000 162.593065 0.000000 -3.969080 83.392776 1.806971 93.251961 7.918255 -177.583980 173.770900 -7.567703 176.039697 -85.013992 4.525718 -1.667324 80.840569 -0.623964 -6.658010 21.454568 0.003110 0.000018 151.710605 -3.069791 -166.273155 -51.010014 1.860876 -2.401711 87.880383 0.700842 -4.911194 21.454555 -0.003092 0.000000 11.381781 2.916226 -1.617082 12.691671 5.992173 -2.907510 12.372163 5.974370 -2.943741 29.166694 0.843576 -3.841641 -10.791468 2.818728 -5.087468 159.540187 -76.107268 19.444143 -10.643240 57.323708 13.856583 -55.836926 -22.177611 2.467225 3.389136 -16.063147 22.352294 -143.798213 81.332950 38.249094 -12.938309 -60.317626 4.588283 -71.913539 17.221258 -2.727241 -27.148301 23.660607 -39.863422 
-119.986318 0.000000 399.176699 0.000000 162.254066 0.000000 -4.250350 84.597427 2.189696 93.329765 8.657773 -178.289302 165.769552 -8.897703 175.613453 -85.529493 4.317459 -2.045462 83.782085 -0.014947 -5.890020 21.454555 0.003108 0.000017 156.313770 -4.374602 -166.771349 -49.041004 1.398768 -2.596539 89.214319 1.018860 -4.212535 21.454550 -0.003088 -0.000000 11.289278 2.973296 -1.214047 12.527375 6.060468 -2.101037 12.207568 6.047540 -2.137717 29.730075 0.711826 -4.126495 -9.854201 3.138225 -5.453351 159.015301 -76.401123 19.964243 -10.608797 57.821472 17.130678 -53.509806 -21.743018 2.353014 5.212023 -8.715418 24.304642 -150.032045 82.210636 31.909206 -17.414406 -60.266789 -0.587882 -66.438056 19.388320 -2.652838 -21.126344 25.665214 -31.566744 
